<svg fill="white" xmlns="http://www.w3.org/2000/svg" viewBox="0 0 47.35 9.89">
  <path class="white" d="M506.81,773.75a2.07,2.07,0,0,0-1.68-.74,2.93,2.93,0,0,0-2.88,2.91,2.84,2.84,0,0,0,2.82,2.91,2.27,2.27,0,0,0,1.73-.75v.6h1.24v-7.6h-1.24Zm-1.59,3.88a1.72,1.72,0,1,1,1.63-1.71A1.69,1.69,0,0,1,505.22,777.64Z" transform="translate(-502.26 -771.01)"></path>
  <path class="white" d="M511.47,773a2.91,2.91,0,1,0,3,2.91A2.89,2.89,0,0,0,511.47,773Zm1.69,2.91a1.69,1.69,0,1,1-1.69-1.71A1.66,1.66,0,0,1,513.16,775.92Z" transform="translate(-502.26 -771.01)"></path>
  <path class="white" d="M519.31,773.74a2,2,0,0,0-1.65-.73,2.72,2.72,0,0,0-2.78,2.85,2.64,2.64,0,0,0,2.64,2.82,2.29,2.29,0,0,0,1.78-.77v.24a1.58,1.58,0,0,1-1.72,1.56,1.84,1.84,0,0,1-1.25-.69l-1,.75a3.17,3.17,0,0,0,2.32,1.13,2.77,2.77,0,0,0,2.84-2.87v-4.87h-1.17Zm0,2.11a1.56,1.56,0,1,1-3.11,0,1.56,1.56,0,1,1,3.11,0Z" transform="translate(-502.26 -771.01)"></path>
  <path class="white" d="M524.26,775.46l-1.16-.22c-.45-.08-.66-.25-.66-.53s.48-.64.94-.64a1.9,1.9,0,0,1,.94.26,6.16,6.16,0,0,1,.51.36l.71-.89s-.4-.27-.58-.37a3.27,3.27,0,0,0-1.61-.42,1.93,1.93,0,0,0-2.15,1.82c0,.88.55,1.33,2,1.59l.65.12c.44.08.66.28.66.58s-.36.64-1,.64a2.07,2.07,0,0,1-.85-.2,5.1,5.1,0,0,1-.83-.61l-.85.88a3.65,3.65,0,0,0,1.23.77,3.22,3.22,0,0,0,1.25.23c1.59,0,2.31-1,2.31-1.87S525.24,775.64,524.26,775.46Z" transform="translate(-502.26 -771.01)"></path>
  <path class="white" d="M533.63,776.25a1.25,1.25,0,1,1-2.5,0v-3.09H529.9v3.19a2.49,2.49,0,0,0,5,0v-3.19h-1.24Z" transform="translate(-502.26 -771.01)"></path>
  <path class="white" d="M539.88,773.75a2.07,2.07,0,0,0-1.68-.74,2.93,2.93,0,0,0-2.88,2.91,2.84,2.84,0,0,0,2.82,2.91,2.27,2.27,0,0,0,1.73-.75v.6h1.24v-7.56h-1.24Zm0,2.17a1.65,1.65,0,1,1-1.63-1.71A1.68,1.68,0,0,1,539.93,775.92Z" transform="translate(-502.26 -771.01)"></path>
  <rect class="white" x="39.69" y="2.15" width="1.24" height="5.52"></rect><path class="white" d="M546.61,773a2.91,2.91,0,1,0,3,2.91A2.89,2.89,0,0,0,546.61,773Zm1.69,2.91a1.69,1.69,0,1,1-1.69-1.71A1.66,1.66,0,0,1,548.3,775.92Z" transform="translate(-502.26 -771.01)"></path>
  <path class="white" d="M526.75,777.25V774.4h-.85v-1.21h.85v-1.78L528,771v2.17h1.34v1.21H528v2.85c0,.6.74.45.95.39a4.21,4.21,0,0,0,.45-.15v1.12a2.55,2.55,0,0,1-.91.15A1.56,1.56,0,0,1,526.75,777.25Z" transform="translate(-502.26 -771.01)"></path><circle class="cls-1" cx="40.32" cy="0.79" r="0.72"></circle>
</svg>